<?xml version="1.0" encoding="utf-8"?>
<svg version="1.1" xmlns="http://www.w3.org/2000/svg" xmlns:xlink="http://www.w3.org/1999/xlink" x="0px" y="0px"
	 viewBox="0 0 192 192" style="enable-background:new 0 0 192 192;" xml:space="preserve">
<style type="text/css">
	.st0{fill:#131D62;}
	.st1{fill:#131A5F;}
	.st2{fill:#1A2063;}
</style>
<rect class="st0" width="192" height="192"/>
<path class="st1" d="M167.948,131.354c-0.969-1.178-1.703-2.514-3.009-3.001c-0.027-0.012-0.051-0.028-0.079-0.039
	c-0.004-0.002-0.007-0.001-0.011-0.003c-0.006-0.002-0.012-0.003-0.018-0.005c-0.72-0.277-1.348-0.122-1.6-0.101
	c-2.956,0.255-6.204-4.68-10.971-9.531c-0.066-0.074-0.135-0.145-0.206-0.211c-0.651-0.656-1.242-1.248-1.803-1.808
	c-1.853-1.929-3.668-3.903-5.966-5.334c-0.278-0.183-0.549-0.348-0.814-0.49l0,0c-1.926-1.029-3.421-2.373-4.11-4.609
	c-0.703-2.282-2.454-3.923-4.166-5.51c-1.402-1.299-2.872-2.524-4.492-3.939c1.199-3.871-1.587-6.115-3.813-8.537
	c1.083-4.115-0.424-7.018-3.957-8.92c0.037-2.13-0.763-3.9-1.315-5.736c-0.552-1.833-1.521-3.676-1.51-5.511
	c0.016-2.722-0.445-5.192-1.935-7.691c2.373-3.629,4.737-7.244,7.337-11.22c-0.926-1.797,0.737-3.201,1.62-4.843
	c0.958-1.783,1.874-3.575,2.492-5.537c-0.649-2.466-1.141-4.998-3.722-5.899c-0.755-1.132-0.026-2.451-1.045-3.3
	c-1.663,0.338-2.657,2.005-4.349,2.026c-6.622-4.183-10.681-2.184-12.259,4.471c-0.553,0.203-1.108,0.341-1.784-0.575
	c1.15-1.734,2.083-3.81,0.704-5.961c-1.482-2.313-4.105-1.023-6.133-1.612c-1.132-2.69-0.875-5.906-3.417-7.923
	c-2.843,1.905-3.743,5.124-5.774,7.441c-3.81-1.22-7.427-2.074-10.218,2.219c-0.666-2.569-1.581-4.288-4.288-3.864
	c-0.855,0.932-1.859,1.821-1.024,3.304c0.191,0.341-0.68,1.71-1.132,1.666l0,0c-1.946-0.336-3.553-0.438-4.302,1.765
	c0.489,2.267,1.37,4.338,2.551,6.284l0.009,0.052l0.045,0.039c0.116,0.19,0.219,0.385,0.341,0.572
	c0.548,0.838,1.184,1.625,1.208,2.726c0.096,4.339,1.327,8.323,4.122,12.014c-2.106,1.126-2.837,2.928-2.845,4.969
	c-0.535,0.624-1.482,0.576-1.692,1.367c-0.896,3.384-2.944,6.522-2.379,10.219c0.385,2.52,0.254,5.051,0.399,7.575
	c0.142,2.481-0.48,4.915-1.77,6.945c-1.4,2.205-2.392,4.491-2.639,7.02c-0.307,3.142-1.254,6.017-2.874,8.864
	c-5.111,2.808-10.724,4.851-15.911,7.866c-5.255,3.055-9.265,7.211-12.893,12.095c-1.205-2.912-0.377-5.87-1.932-8.054
	c-1.472-0.507-2.464-0.357-3.223,0.95h-1.349l-0.009,0.014c-0.076-0.122-0.145-0.247-0.238-0.359
	c-0.62-0.557-1.497-0.24-2.093-1.008c0.09-4.505,0.057-9.144,3.482-12.756c1.118,0.378,0.922,1.561,1.916,1.45
	c1.014-1.04,1.766-2.212,2.261-3.722c-0.813-1.105-0.415-2.938-2.011-3.729c-2.019,0.492-2.994,2.593-4.804,3.251
	c-1.024-1.254,0.978-1.213,0.447-2.333c-0.042-0.194-0.757-0.422-0.136-1.364c0.152-0.253,1.189-0.018,1.317-0.827
	c-0.538-0.781-1.454-0.186-1.977-0.716c-1.227-4.496-2.218-5.582-5.298-5.779c-0.201,0.529-0.203,0.894-0.091,1.164
	c0.003,0.008,0.001,0.011,0.004,0.019c0.43,0.97-1.73,4.671-2.302,5.245c-0.945,1.291-3.054,1.421-3.527,3.449
	c0.557,0.842,1.109,1.677,1.661,2.511c0.959,2.57-2.223,3.953-1.989,6.362c1.78,0.142,2.859-2.807,4.792-0.637
	c0.115,2.966,1.099,5.838,1.913,9.109c-0.293,0.326-0.992-0.486-1.784-0.315c-1.888,0.331-3.798-1.237-5.605,0.219
	c-1.257,1.013-1.629,3.389-0.861,5.118c0.199,0.507,1.236,0.561,0.914,1.166c-0.685,1.766-1.909,3.339-0.277,4.892
	c1.489,0.19,1.441-1.636,2.857-1.487c1.519,1.083,2.377,3.041,4.212,4.135c0.172,5.605,0.801,11.128,0.377,17.069
	c-0.22,0.1-0.412,0.231-0.612,0.353C38.341,168.313,65.337,184,96,184c33.815,0,63.17-19.076,77.905-47.051
	C171.812,134.578,170.496,134.323,167.948,131.354z"/>
<path class="st2" d="M74.183,37.098c0.17,0.314,0.337,0.628,0.528,0.942c0.011,0.019,0.022,0.037,0.033,0.057
	c0.006,0.01,0.012,0.019,0.018,0.029c0.055,0.09,0.107,0.18,0.16,0.271c0.051,0.089,0.102,0.178,0.158,0.264l0.206,0.309
	c0.068,0.101,0.138,0.206,0.209,0.314c0.365-0.096,0.65-0.287,0.934-0.28c0.748-0.903-0.247-1.702,0.213-2.498
	c0.952-0.738,1.946-1.008,3.281-0.743c1.333,0.265,2.256-0.582,2.402-1.939c-1.318-2.562-3.689-0.118-5.208-1.266
	c-0.996-2.181,2.119-1.932,2.031-3.545c-0.483-0.581-0.938-0.492-1.399-0.291c0.172,0.572,0.058,1.229-0.375,1.969
	c-0.346,0.59-1.088,1.581-2.173,1.581c-0.048,0-0.117-0.003-0.164-0.008c-0.038-0.004-0.075-0.009-0.112-0.015
	c-0.093-0.016-0.187-0.028-0.281-0.043c-0.535,0.955-1.228,1.789-0.997,2.835C73.802,35.74,74.029,36.425,74.183,37.098z"/>
<path class="st2" d="M87.546,33.529c3.414-1.346,6.79-1.904,10.03,0.229c0.042,1.409-0.038,2.486-1.121,3.36
	c-1.353-0.816-2.467-2.531-4.527-1.529c-1.585,1.671-0.869,2.964,0.556,4.035c1.605,0.356,2.589-0.995,3.883-0.859
	c1.405,2.647-2.064,3.415-1.972,5.517c-0.611-0.091-0.407-1.205-1.279-0.974c-1.891,1.164-1.891,1.164-1.231,3.563
	c1.233,0.017,2.3-1.145,3.311,0.183c0.417,0.889-1.004,1.711-0.066,3.003c3.297-0.485,6.676,0.5,10.203,1.347
	c0.009-2.231-2.434-2.416-2.24-4.609c0.125-0.484,0.66-0.95,1.794-0.752c0.885,0.296,0.943,1.69,2.028,1.951
	c0.577,0.067,1.151-0.479,1.957,0.176c-0.635,2.839,3.189,1.545,3.824,3.489c-0.753,0.99-2.127,0.64-2.641,1.863
	c1.302,1.551,2.308,0.919,3.458-0.719c-1.272-2.454,1-4.681,1.165-7.304c-2.268-0.536-4.467-0.785-5.513-3.032
	c-0.379-0.855,1.208-1.549,0.022-2.619c-1.209-0.306-1.65,0.842-2.34,1.639c-1.846,2.134-4.117,2.344-6.081,0.612
	c-1.862-1.642-1.916-3.539-0.213-5.695c0.924-0.678,2.162-0.002,3.37-0.942c-1.908-1.045-3.512-0.435-4.912-0.121
	c-0.762-0.446-1.113-0.873-0.566-2.021c2.564,0.655,5.058-0.964,7.762-0.6c0.152-0.498,0.183-0.946,0.104-1.372
	c-0.092-0.08-0.196-0.153-0.315-0.217c-2.494-1.347-4.894-0.095-7.395,0.474c-2.023-2.701,0.315-6.229-1.657-8.974
	c-0.681,0.802-1.244,1.721-1.821,2.678c-0.546,0.906-1.116,1.835-1.809,2.702c-0.334,0.654-0.718,1.275-1.22,1.823
	c-2.344-0.005-4.759-1.578-7.077,0.438C85.823,31.416,85.967,32.979,87.546,33.529z"/>
<path class="st2" d="M17.583,116.536c-0.563,0.19-0.876,0.623-1.185,1.025c0.002,0.006,0.003,0.013,0.005,0.019
	c0.914,0.54,1.169,1.173,1.185,1.702c1.326-0.56,2.41-1.732,4.122-1.759C20.332,115.305,18.701,117.028,17.583,116.536z"/>
<path class="st2" d="M79.003,124.344c-0.275,2.521-3.262,3.203-3.167,5.431c-1.012,0.872-1.983,0.147-3.016,0.577
	c-0.218,0.474-0.349,1.261-1.16,1.432c-4.122-0.236-4.464-0.059-5.111,2.761c3.18,0.358,6.381-0.446,9.312-0.016
	c0.617,0.835,0.07,1.676,0.746,2.192c1.624-0.126,1.734-1.808,2.534-2.505c1.668-0.867,3.604,0.175,5.397-1.506
	C81.801,130.51,80.874,127.207,79.003,124.344z"/>
<path class="st2" d="M112.05,132.183c-2.385-1.9-4.155-3.311-5.822-4.638c-0.871,0.408-1.184,0.889-1.312,1.641
	c0.308,0.452,0.663,0.972,1.075,1.576c-2.337,0.066-1.926-1.949-2.585-3.24c-1.148,0.917-0.845,3.115-3.212,2.667
	c1.526-3.53,4.211-6.041,6.385-8.91c-1.939-1.505-2.792,1.795-4.294,0.502c-0.871,1.189,0.279,1.892-0.321,2.854
	c-1.548-0.114-1.438,1.531-2.212,2.455c-0.653,0.137-1.328,0.278-1.803,0.378c-0.965,0.694-0.179,2.02-1.409,2.476
	c-0.758,0.346-1.653-0.529-2.917,0.214c-1.101,0.371,0.136,2.037-0.579,2.855c-1.391-0.068-1.948-2.695-3.622-0.868
	c0.843,2.331,2.98,1.215,4.539,2.072c1.554-1.819,3.475-1.648,5.577-1.321C103.512,133.512,107.426,132.755,112.05,132.183z"/>
<path class="st2" d="M115.166,51.869c0.765,0.84,1.515,0.177,2.314,0.516c0.192,0.838-0.382,1.974,0.821,2.957
	c0.869-0.15,1.492-0.502,1.992-0.949l1.729-2.645c0.169-0.344,0.339-0.681,0.531-0.989c-0.531-1.646-2.214-1.298-2.856-2.347
	c0.541-1.018,1.757-0.997,2.458-1.718c-0.672-2.049-2.559-2.667-4.112-3.66c-1.008,0.792-1.942,1.526-2.801,2.201
	c0.248,1.113,1.58,0.907,1.935,1.783C115.447,48.383,114.763,50.007,115.166,51.869z"/>
<path class="st2" d="M98.581,88.492c-2.237-2.64-4.832-3.375-7.014-1.979c0.206,1.196,1.475,1.61,1.932,2.616
	c0.427,1.651-0.062,3.418,0.602,5.058c0.749,0.4,1.468,0.742,2.374,0.152c0.624-0.746,0.526-1.448,0.514-2.156
	c-0.013-0.789-0.322-1.6,0.011-2.213C97.508,89.283,98.471,89.369,98.581,88.492z"/>
<path class="st2" d="M95.388,173.624c0.396-4.585,0.947-9.154-0.275-13.653C93.711,164.572,94.212,169.121,95.388,173.624z"/>
<path class="st2" d="M101.913,170.86c-1.108-2.516-1.73-5.458-2.583-8.387c1.149,4.847-0.026,9.626-0.411,14.377
	c-0.16,1.974-0.034,3.811,0.412,5.581c0.513-0.02,1.023-0.05,1.534-0.078c-0.415-2.888-0.203-5.79-0.797-8.37
	C100.389,172.485,101.825,172.323,101.913,170.86z"/>
<path class="st2" d="M170.355,135.704c-0.293-0.235-0.6-0.483-0.923-0.756c0.394,1.605,0.711,3.22,1.246,4.717
	c0.477-0.815,0.943-1.638,1.395-2.472C171.489,136.613,170.951,136.182,170.355,135.704z"/>
<path class="st2" d="M113.258,39.013c-0.2,1.591-1.356,3.632,1.486,4.286c1.16-0.593,1.96-1.401,2.088-2.475
	c-0.311-1.45-1.775-1.583-2.178-2.564c0.182-0.666,0.582-0.922,1.324-1.068c0.572,1.003,1.115,2.227,2.475,2.568
	c0.872-1.46-0.098-2.647-0.703-3.892c2.988-0.583,2.898,3.206,5.259,3.124c0,0.582,0.023,1.097-0.794,1.709
	c-0.579,0.258-2.81-0.905-2.225,1.605c1.938,1.409,2.891-0.623,4.296-1.26c0.764,1.955-1.786,3.066-1.011,4.855
	c0.59-0.139,1.058-0.341,1.433-0.59c0.144-0.227,0.29-0.447,0.428-0.651c0.25-0.368,0.487-0.716,0.669-1.055
	c0.094-0.176,0.189-0.358,0.283-0.536c0.179-0.882,0.18-1.854,0.277-2.773c0.196-0.859,1.185-0.957,1.68-1.607l-0.004-0.016
	c-0.351-1.355-0.656-2.407-1.147-3.17c-0.277-0.104-0.603-0.169-1.037-0.148c-1.212,0.138-1.238,1.813-2.65,1.992
	c0.069-1.155,0.937-2.066,0.058-3.454c-3.103,0.336-5.853-1.786-9.165-2.393c-0.802,0.432-1.928,0.469-2.208,1.56
	c0.236,2.347,2.554,0.138,3.226,1.494c-1.055,1.657-3.384,1.334-4.255,2.955C111.367,38.647,112.646,38.137,113.258,39.013z"/>
<path class="st2" d="M130.564,111.105c-0.418,0.687-0.227,1.236,0.224,1.921c2.063,0.521,4.233,1.128,6.204,1.24
	c0.914-0.807,0.144-1.636,0.756-2.205c3.602,2.794,4.132,8.306,9.272,9.942c0.568-0.04,0.306-1.067,0.78-1.606
	c1.147,1.441,1.868,2.919,2.548,4.565c1.515-0.503,2.893-1.299,4.463-1.315c-0.046-0.052-0.091-0.102-0.138-0.154
	c-1.096-1.225-2.229-2.492-3.483-3.768c-0.017-0.017-0.033-0.034-0.049-0.052c-0.037-0.042-0.076-0.082-0.116-0.12
	c-0.62-0.623-1.155-1.16-1.667-1.671c-0.69-0.319-1.451-0.546-2.266-0.719c-1.527-2.871-3.965-4.657-7.146-5.57
	c-1.898-0.545-2.485-2.532-3.334-3.809c-1.138-0.334-1.567,0.38-2.159,0.677c-0.369,0.617,0.641,1.396-0.252,1.968
	C133.055,111.034,131.598,110.239,130.564,111.105z"/>
<path class="st2" d="M54.344,123.152c-1.166,0.793-2.427,1.079-2.874,2.418c0.673,1.295,0.857,3.021,3.316,2.924
	c0.83-2.83,4.503-1.643,6.214-3.967C59.086,121.555,56.142,125.274,54.344,123.152z"/>
<path class="st2" d="M26.66,101.897c0.706-1.294,2.227-1.822,2.566-3.384c-0.056,0.023-0.104,0.054-0.161,0.075
	c-0.168,0.061-0.341,0.09-0.512,0.09c-0.293,0-0.577-0.093-0.823-0.255c-0.974,0.392-1.734,1.487-2.869,1.368
	c-0.887-0.407-1.178-1.23-1.356-2.121c0.603-0.796,1.056,0.241,1.967-0.153c0.321-0.264,0.844-0.528,1.291-0.93
	c-0.011-0.459,0.133-0.964,0.584-1.486c-0.105-0.208-0.161-0.426-0.194-0.648c-0.461-0.535-1.224-0.731-1.622-1.231
	c-0.644-1.432,0.166-2.886-0.307-4.249c-0.129-0.398-0.51-0.591-0.935-0.749c-0.321,1.99-2.029,4.54-2.566,5.246l0.005,0.003
	c-0.025,0.034-0.055,0.06-0.08,0.092c0.141,0.301,0.226,0.629,0.325,0.949c-0.551,0.749-1.905,0.257-2.147,1.576
	c0.023,1.439,1.616,1.096,2.33,1.737c1.004,1.277,1.131,2.81,1.373,4.058C24.808,103.2,25.461,99.705,26.66,101.897z"/>
<path class="st2" d="M40.867,154.506c-2.834-0.69-3.528-0.164-4.743,3.918c0.147,0.142,0.291,0.288,0.439,0.428
	C39.455,159.807,41.071,158.126,40.867,154.506z"/>
<path class="st2" d="M47.209,139.167c-1.191-1.835-1.486-3.944-3.517-4.925c-0.897,0.947-1.486,1.932-1.466,3.152
	C44.064,139.842,44.398,139.978,47.209,139.167z"/>
<path class="st2" d="M40.284,162.174c1.074,0.906,2.172,1.779,3.286,2.629c0.706-1.681,0.567-3.608,0.247-5.894
	C42.638,160.372,41.555,161.511,40.284,162.174z"/>
<path class="st2" d="M39.017,136.339c2.599-2.325,4.484-4.817,3.838-8.785c-3.597,0.265-3.3,3.347-4.413,5.248
	C37.771,133.949,37.599,135.228,39.017,136.339z"/>
<path class="st2" d="M38.022,151.507c-1.917-0.166-3.389,0.406-4.708,1.942c-0.588-1.585-1.042-2.809-1.482-3.995
	c1.276-0.957,2.752-0.309,3.945-1.026c0.35-0.928,0.566-1.873-0.069-3.195c-2.673-0.457-3.362,3.068-5.789,3.402
	c-1.273-6.701-0.495-13.442-2.094-20.131c-2.232-0.191-3.313,0.68-3.327,2.45c0.02,0.369,0.039,0.743,0.059,1.108
	c0.2,3.617,0.388,7.356,0.18,11.255c0.019,0.594,0.031,1.188,0.052,1.782c2.452,3.551,5.137,6.886,8.033,9.986
	c0.774,0.234,1.664,0.187,3.184,0.057C36.837,154.137,38.302,153.389,38.022,151.507z"/>
<path class="st2" d="M46.311,122.137c2.12,5.585,3.149,11.39,6.102,16.436c1.499,0.436,2.449-0.119,3.224-1.495
	c-0.689-3.187-3.144-5.233-4.465-7.946C47.974,122.566,47.862,122.62,46.311,122.137z"/>
<path class="st2" d="M53.857,141.823c-1.733,1.868-2.931,3.765-5.311,5.177c1.735,1.781-0.213,3.272,0.017,4.993
	c0.283,2.115-0.263,4.238-1.317,6.107c-1.307,2.319-2.185,4.766-2.864,7.323c0.983,0.732,1.983,1.438,2.995,2.127
	c0.299-0.775,0.588-1.564,0.884-2.313c0.118-1.287-0.862-2.091-0.623-3.169c1.213-4.179,4.706-7.695,3.459-12.494
	C52.717,147.304,54.385,145.156,53.857,141.823z"/>
<path class="st2" d="M25.519,115.196c0.978-0.721,0.128-1.212,0.119-1.737c0.142-0.23,0.387-0.343,0.622-0.462
	c-0.024-0.113-0.054-0.225-0.052-0.341l0.009-0.469c0.021-1.081,0.042-2.197,0.118-3.323c-0.506-1.725-1.011-3.475,0.171-5.44
	c-2.062,1.095-2.174,1.57-2.161,4.541c0.005,1.132,0.398,2.348,0.093,3.589c0.129,0.485,0.259,0.964,0.384,1.466
	c0.12,0.484-0.007,0.996-0.341,1.366c-0.317,0.352-0.75,0.547-1.224,0.567C23.862,115.412,24.569,115.608,25.519,115.196z"/>
<path class="st2" d="M28.546,118.979c0.042,0.992,0.673,1.758,1.427,2.51c1.051,0.438,2.114,0.456,3.161-0.027
	c1.596-1.388,0.528-3.031,0.702-4.292c-0.611-0.916-1.37-0.056-1.912-0.778c-0.17-0.258-0.241-0.566-0.291-0.885
	c-0.079,0.013-0.156,0.031-0.237,0.031h-0.772c0.05,0.229,0.089,0.456,0.118,0.673C30.342,117.539,28.817,117.662,28.546,118.979
	z"/>
<path class="st2" d="M110.64,122.179c2.197-2.507,5.492-4.032,6.794-7.373c-1.583,1.145-3.228,2.125-4.705,3.31
	c-1.529,1.227-2.87,2.69-4.269,4.026C109.451,123.394,110.122,122.769,110.64,122.179z"/>
<path class="st2" d="M125.286,102.178c-1.989,0.109-3.97,0.362-5.956,0.54c-1.122,0.1-2.197,0.273-2.827,1.342
	c0.625,1.906,0.625,1.906,2.869,2.331c0.068,0.756,0.139,1.535,0.161,1.778c-1.632,2.02-4.191,1.893-5.626,3.815
	c0.606,0.731,0.762,1.637,1.768,1.607c3.06-1.971,5.251-4.926,8.209-6.948c-0.382,1.978-2.226,2.818-3.023,4.483
	c2.451,0.155,2.451,0.155,4.927-2.464c2.155-1.008,4.355-0.835,6.713-1.203c-1.215-1.323-2.441-2.637-3.643-3.973
	C127.892,102.411,126.623,102.105,125.286,102.178z"/>
<path class="st2" d="M91.084,77.286c1.917,1.555-0.796,2.099-0.608,3.545c1.412,2.057,3.615,2.622,6.117,2.357
	c0.883,0.394,1.301,1.367,2.472,1.601c0.513,0.301,0.906-1.061,1.684-0.412c0.754,1.436,0.786,3.424,2.686,3.848
	c0.898-0.149,1.244-0.553,1.486-1.183c0.531-1.387-0.902-2.132-1.079-3.239c1.199-2.012,3.785-1.506,5.226-3.078
	c0.42-2.737-1.787-4.828-1.958-7.583c1.426,0.134,2.774,0.155,3.365-1.759c-2.328-4.06-0.756-8.336,0.147-12.758
	c-1.675-0.469-0.203-2.223-1.174-3.084c-2.294-2.217-5.142-2.556-8.069-2.314c-2.056-2.691-4.722-2.712-9.415-0.165
	c-5.989-0.227-10.42,0.74-10.809,2.456c0.246,0.43,0.53,0.927,0.779,1.364c-0.249,0.92-1.644,0.516-1.659,1.779
	c1.233,0.403,2.585-0.353,3.576,0.141c1.8,1.763,3.439,3.369,5.232,5.126c1.676-3.29,4.733-1.29,7.109-2.021
	c2.482-0.764,5.069-0.317,7.001,1.719c-0.97,1.987-3.247-0.86-4.115,1.428c1.072,0.569,2.068,0.446,3.065,0.299
	c1.185-0.174,2.272-0.179,2.513,1.392c-0.819,0.716-2.021-0.011-3.077,0.974c-0.51,2.177-2.568,3.2-4.507,4.412
	c-2.001-1.54-2.236-4.274-4.25-5.313c-0.401-0.955,0.439-1.798-0.303-2.543c-0.745-0.351-1.493-0.433-2.026-0.023
	c-0.689,3.364-2.258,6.206-3.247,9.244c-0.528,1.623-2.007,3.144-0.541,4.888C88.463,78.734,89.511,76.906,91.084,77.286z"/>
<path class="st2" d="M80.329,79.381c4.433-0.909,4.436-5.059,6.41-8.05c-3.232-0.875-6.016-1.634-9.055-1.128
	c-0.794,0.86-1.398,1.525-1.108,2.488c1.092,1.43,2.879,0.589,4.086,1.25C80.738,75.789,79.315,77.323,80.329,79.381z"/>
<path class="st2" d="M119.377,170.954c-1.207,0.84-2.087,1.733-2.984,2.838c0.274,1.945-1.16,4.185,0.458,6.169
	c0.261-0.065,0.519-0.135,0.779-0.202c0.39-1.028-0.365-1.987-0.089-3.433C117.241,174.818,120.745,173.834,119.377,170.954z"/>
<path class="st2" d="M116.586,168.033c0.164-2.556,1.507-4.881,0.791-7.83c-2.48,0.828-3.598,3.929-6.438,3.312
	c-0.101-0.022-0.27,0.27-0.429,0.439c-0.105,0.566,0.464,0.813,0.71,1.29c-0.783,0.714-1.041,1.942-2.203,2.325
	c-2.103-2.663-5.049-4.556-6.549-7.935c-1.104-7.675,4.2-14.464,11.476-15.65c0.156-0.545,0.549-1.106-0.075-1.574
	c-2.631-0.426-4.079,1.688-5.957,2.901c-0.521-1.105,1.266-1.629,0.133-2.754c-0.836-0.667-1.813,1.436-2.972-0.014
	c0.338-2.489,0.837-5.222-1.038-7.751c-1.194,2.462-0.612,5.234-1.394,7.789c0.559,1.133,1.677,2.109,1.147,3.498
	c-0.519,0.414-1.011,0.344-1.658,0.19c-0.704-0.609-0.424-2.482-2.144-2.183c-0.643,0.638-0.524,1.326-0.382,2.035
	c0.595,2.971,0.967,5.931,0.811,9.006c-0.285,5.592,1.332,10.264,6.928,12.856c1.863,0.863,2.883,3.63,2.143,5.514
	c-0.595,1.513-0.457,2.958-0.477,4.456c-0.009,0.654,0.298,1.441-0.726,1.872c-2.496-2.656-0.711-5.715-0.764-8.65
	c-0.802-1.156-1.835-1.965-3.629-2.226c0.408,2.356-1.847,3.287-2.167,4.897c0.083,1.029,1.046,1.28,1.015,2.387
	c-0.389,1.327-0.861,2.937-1.279,4.365c0.38,0.842,1.226,1.099,1.842,1.584c2.61-0.219,5.196-0.547,7.749-0.995
	c-0.064-2.344,1.223-4.212,1.998-6.248c0.036-0.095,0.111-0.193,0.103-0.283C112.879,171.709,114.668,169.795,116.586,168.033z"
	/>
<path class="st2" d="M113.852,76.432c-0.404-0.801,0.029-1.486-0.572-2.073c-0.91-0.153-1.788-1.104-3.219-0.402
	c1.954,1.597,1.183,3.97,1.955,5.892c1.97,1.191,3.201,0.521,4.083-1.239C115.587,77.374,114.259,77.171,113.852,76.432z"/>
<path class="st2" d="M140.241,120.361c-2.017-1.3-4.238-1.492-6.024-2.457c-0.801,0.499-1.236,0.996-1.106,2.011
	c1.184,1.707,2.694,3.108,5.084,3.123c0.469-1.005-1.151-1.348-0.427-2.21C138.466,119.917,139.235,121.503,140.241,120.361z"/>
<path class="st2" d="M130.925,123.565c5.935,1.913,6.408,1.923,8.485-0.079c-4.275,0.125-7.62-1.563-10.741-3.784
	c0.821-1.964,3.631-2.622,3.804-5.406c-3.059,0.021-2.671,2.968-4.952,4.167c-1.259-0.171-3.086-0.271-3.801-1.795
	c-0.392-1.777,1.741-1.283,1.469-2.678c-1.231-0.385-2.453-0.767-3.526-1.102c-1.422,0.295-2.481,0.778-2.789,2.158
	c0.899,1.735,0.899,1.735,3.787,3.105c-0.198,1.011,0.335,1.992,0.762,3.278c-4.566,0.73-8.363,2.659-11.571,5.54
	c0.279,0.858,0.569,1.236,1.195,1.311c1.131-1.492,2.55-2.312,4.514-2.698c1.823-0.358,4.301-0.131,4.919-3.103
	C125.316,124.602,128.08,126.008,130.925,123.565z"/>
<path class="st2" d="M74.921,153.096c-3.039-0.096-3.688,0.435-4.103,3.46c1.599,0.147,3.242,1.261,4.765-0.675
	c-0.063-0.491-0.068-0.796-0.145-1.082C75.284,154.22,75.092,153.651,74.921,153.096z"/>
<path class="st2" d="M166.81,132.331c-0.038-0.046-0.066-0.087-0.103-0.132c-0.298,0.144-0.563,0.301-0.73,0.609
	c-0.207,0.969-0.414,1.939-0.656,3.068c-1.513,0.78-3.07,1.609-4.743,1.495c0.508-2.735,3.191-4.736,2.981-7.696
	c-0.076,0.01-0.144,0.019-0.198,0.024c-0.116,0.01-0.233,0.015-0.35,0.015c-2.42,0-4.6-2.094-7.184-4.939
	c-0.645,1.131-2.158,1.225-3.292,1.976c-0.768,0.632-0.844,2.034-2.006,2.857c-1.111-1.154-0.507-2.676-0.98-3.909
	c-0.787-0.743-1.446-0.358-2.199,0.348c-0.059,1.175-0.123,2.457-0.16,3.192c0.27,1.311,1.25,0.909,1.598,1.737
	c-2.335,1.814-0.228,5.026-2.175,6.964c0.397,1.656,2.07,1.726,2.844,2.774c-6.214,2.575-12.537,2.097-19.033,0.418
	c-0.687,6.399-2.285,12.224-2.011,18.333c-0.569,0.731-2.062,0.435-2.149,2.138c0.782,1.233,0.32,2.945,0.479,4.599
	c-0.362,0.665-1.081,0.374-1.813,0.691c-1.048,3.834-2.123,7.768-3.201,11.714c5.252-1.631,10.313-3.76,15.127-6.338
	c0.03-0.11,0.061-0.219,0.09-0.329c0.148,0.011,0.262,0.047,0.383,0.078c2.5-1.359,4.93-2.84,7.284-4.44
	c1.046-2.598,3.839-3.333,5.974-4.709c1.526-0.983,2.803-2.214,4.188-3.382c0.516-0.478,1.032-0.957,1.537-1.449
	c-0.499-0.407-0.783-0.638-1.118-0.911c0.695-0.729,1.384-1.451,1.624-1.703c0.985-0.602,1.754-0.395,2.424-0.396
	c1.946-2.088,3.795-4.28,5.54-6.571c-1.89,0.331-2.378,1.961-3.096,3.314c-1.97,0.165-3.877,0.466-5.38-0.494
	c-1.286-0.155-1.735,0.897-2.888,1.276c0.423-2.354,2.486-2.486,3.87-3.802c0.076-1.807,2.45-1.916,3.306-3.481
	c0.796,0.09,1.427,0.789,2.345,0.636c1.968-0.692,4.888-4.719,4.832-6.714c-0.901-0.516-1.622,0.579-2.857,0.266
	c1.458-1.154,2.539-2.325,1.864-4.113c0.583-0.448,1.297-0.664,1.768-1.189C168.021,133.662,167.45,133.077,166.81,132.331z
	 M151.573,151.909c-0.868,0.488-2.13-0.276-3.163,0.548c-0.493-1.822,2.145-2.812,0.385-5.077
	c-1.194,3.541-3.72,5.864-5.171,9.134c-5.063,1.162-3.879,6.558-6.075,9.815c-1.946-1.081,0.127-3.97-2.496-4.7
	c-0.72,1.653-1.408,3.232-2.167,4.976c-0.744-1.932-0.744-1.932,0.244-5.315c1.566-1.085,3.464-2.129,2.415-4.709
	c1.083-0.991,2.482-1.607,2.566-2.666c0.416-1.569-1.826-1.062-1.043-2.495c1.143-0.51,1.462,0.488,2.015,1.245
	c0.486-0.713,0.276-1.786,1.243-2.224c1.212,0.214,0.47,1.879,1.747,2.273c1.042-0.371,1.254-3.087,2.992-1.3
	c1.112-0.951,1.073-1.857,0.798-2.753c-0.28-0.91-0.345-1.766,0.095-2.508c0.699-0.832,1.52-0.6,2.139-0.439
	c0.775-0.51,0.726-1.433,1.574-1.772c3.291,0.283,0.058,3.778,2.282,4.647c0.44-0.132,1.012-0.304,1.83-0.55
	C153.503,149.627,152.97,150.842,151.573,151.909z"/>
</svg>
